<svg width="61" height="61" viewBox="0 0 61 61" fill="none" xmlns="http://www.w3.org/2000/svg">
<circle cx="30.0473" cy="30.0473" r="28.0473" stroke="white" stroke-width="4"/>
<path d="M41.5158 18.5841L44.3441 21.4126C45.0943 20.6625 45.5158 19.645 45.5158 18.5841C45.5158 17.5233 45.0944 16.5058 44.3442 15.7556L41.5158 18.5841ZM30.3342 29.7647L27.5059 26.9362C26.7557 27.6863 26.3342 28.7037 26.3342 29.7646C26.3341 30.8255 26.7556 31.843 27.5057 32.5932L30.3342 29.7647ZM41.884 41.3145L44.7161 44.1392C46.2747 42.5765 46.273 40.0467 44.7124 38.4861L41.884 41.3145ZM41.5158 41.6837L38.6875 44.5122C39.4383 45.263 40.4568 45.6844 41.5185 45.6837C42.5803 45.6829 43.5982 45.2601 44.348 44.5083L41.5158 41.6837ZM29.965 30.1339L32.7933 27.3053C32.0432 26.5552 31.0257 26.1338 29.9649 26.1339C28.904 26.1339 27.8866 26.5554 27.1365 27.3056L29.965 30.1339ZM18.4162 41.6837L15.5878 44.5121C16.3379 45.2623 17.3554 45.6837 18.4163 45.6837C19.4772 45.6836 20.4946 45.2622 21.2447 44.512L18.4162 41.6837ZM18.0471 41.3145L15.2185 38.4862C13.6565 40.0483 13.6566 42.5809 15.2186 44.143L18.0471 41.3145ZM29.5959 29.7647L32.4244 32.593C33.9864 31.0309 33.9864 28.4983 32.4243 26.9363L29.5959 29.7647ZM18.4152 18.5841L15.5868 15.7556C14.0247 17.3177 14.0247 19.8504 15.5868 21.4125L18.4152 18.5841ZM18.7844 18.2149L21.6128 15.3865C20.0507 13.8244 17.518 13.8244 15.9559 15.3865L18.7844 18.2149ZM29.965 29.3956L27.1366 32.224C28.6986 33.7861 31.2312 33.7861 32.7933 32.2241L29.965 29.3956ZM41.1467 18.2149L43.9751 15.3865C42.413 13.8244 39.8805 13.8244 38.3184 15.3864L41.1467 18.2149ZM41.5158 18.5841L38.6875 15.7555L27.5059 26.9362L30.3342 29.7647L33.1625 32.5933L44.3441 21.4126L41.5158 18.5841ZM30.3342 29.7647L27.5057 32.5932L39.0555 44.143L41.884 41.3145L44.7124 38.4861L33.1626 26.9363L30.3342 29.7647ZM41.884 41.3145L39.0518 38.4899L38.6836 38.859L41.5158 41.6837L44.348 44.5083L44.7161 44.1392L41.884 41.3145ZM41.5158 41.6837L44.3441 38.8551L32.7933 27.3053L29.965 30.1339L27.1367 32.9624L38.6875 44.5122L41.5158 41.6837ZM29.965 30.1339L27.1365 27.3056L15.5877 38.8554L18.4162 41.6837L21.2447 44.512L32.7936 32.9622L29.965 30.1339ZM18.4162 41.6837L21.2446 38.8552L20.8755 38.4861L18.0471 41.3145L15.2186 44.143L15.5878 44.5121L18.4162 41.6837ZM18.0471 41.3145L20.8756 44.1428L32.4244 32.593L29.5959 29.7647L26.7673 26.9364L15.2185 38.4862L18.0471 41.3145ZM29.5959 29.7647L32.4243 26.9363L21.2436 15.7556L18.4152 18.5841L15.5868 21.4125L26.7675 32.5932L29.5959 29.7647ZM18.4152 18.5841L21.2436 21.4125L21.6128 21.0433L18.7844 18.2149L15.9559 15.3865L15.5868 15.7556L18.4152 18.5841ZM18.7844 18.2149L15.9559 21.0433L27.1366 32.224L29.965 29.3956L32.7935 26.5672L21.6128 15.3865L18.7844 18.2149ZM29.965 29.3956L32.7933 32.2241L43.975 21.0435L41.1467 18.2149L38.3184 15.3864L27.1367 26.567L29.965 29.3956ZM41.1467 18.2149L38.3182 21.0433L38.6874 21.4125L41.5158 18.5841L44.3442 15.7556L43.9751 15.3865L41.1467 18.2149Z" fill="white"/>
</svg>
